<svg width="22" height="28" viewBox="0 0 22 28" fill="none" xmlns="http://www.w3.org/2000/svg">
<path d="M19.4333 0.7035C18.1575 0.133 16.719 0.35 15.676 1.281L4.30975 11.3837C4.19425 11.4888 4.09975 11.6095 4 11.725V1.75C4 0.78225 3.21775 0 2.25 0C1.28225 0 0.5 0.78225 0.5 1.75V26.25C0.5 27.2178 1.28225 28 2.25 28C3.21775 28 4 27.2178 4 26.25V16.275C4.09975 16.3905 4.19425 16.5113 4.30975 16.6145L15.676 26.7173C16.3357 27.3053 17.153 27.6098 17.9878 27.6098C18.4725 27.6098 18.9643 27.5047 19.4333 27.2948C20.709 26.7243 21.5 25.4993 21.5 24.1028V3.89725C21.5 2.50075 20.709 1.27575 19.4333 0.7035Z" fill="#343A40"/>
</svg>
