<svg width="36" height="36" viewBox="0 0 36 36" fill="none" xmlns="http://www.w3.org/2000/svg">
<path d="M18 0.5C14.5388 0.5 11.1554 1.52636 8.27753 3.44928C5.39967 5.37221 3.15665 8.10533 1.83212 11.303C0.507582 14.5007 0.161024 18.0194 0.836266 21.4141C1.51151 24.8088 3.17822 27.927 5.62564 30.3744C8.07306 32.8218 11.1913 34.4885 14.5859 35.1637C17.9806 35.839 21.4993 35.4924 24.697 34.1679C27.8947 32.8434 30.6278 30.6003 32.5507 27.7225C34.4736 24.8446 35.5 21.4612 35.5 18C35.4949 13.3603 33.6495 8.91204 30.3687 5.63126C27.088 2.35048 22.6397 0.505095 18 0.5ZM18 9.25C19.0384 9.25 20.0534 9.55791 20.9168 10.1348C21.7801 10.7117 22.453 11.5316 22.8504 12.4909C23.2477 13.4502 23.3517 14.5058 23.1491 15.5242C22.9466 16.5426 22.4465 17.4781 21.7123 18.2123C20.9781 18.9465 20.0426 19.4466 19.0242 19.6491C18.0058 19.8517 16.9502 19.7477 15.9909 19.3504C15.0316 18.953 14.2117 18.2801 13.6348 17.4167C13.0579 16.5534 12.75 15.5384 12.75 14.5C12.75 13.1076 13.3031 11.7723 14.2877 10.7877C15.2723 9.80312 16.6076 9.25 18 9.25ZM18 32C14.9186 32.0034 11.9047 31.0976 9.33576 29.396C9.53879 27.7039 10.3541 26.1446 11.6279 25.0124C12.9016 23.8801 14.5458 23.2533 16.25 23.25H19.75C21.4542 23.2533 23.0984 23.8801 24.3721 25.0124C25.6459 26.1446 26.4612 27.7039 26.6643 29.396C24.0953 31.0976 21.0814 32.0034 18 32Z" fill="#343A40"/>
</svg>
