<svg width="28" height="28" viewBox="0 0 28 28" fill="none" xmlns="http://www.w3.org/2000/svg">
<path d="M9.33342 13.2982C12.6471 13.2982 15.3334 10.4706 15.3334 6.98246C15.3334 3.49434 12.6471 0.666668 9.33342 0.666668C6.01971 0.666668 3.33341 3.49434 3.33341 6.98246C3.33341 10.4706 6.01971 13.2982 9.33342 13.2982Z" fill="currentColor"/>
<path d="M11.3334 14.7018H7.33342C5.56596 14.704 3.87149 15.444 2.62171 16.7596C1.37192 18.0752 0.668865 19.8588 0.666748 21.7193V25.9298C0.666748 26.3021 0.807224 26.659 1.05727 26.9223C1.30732 27.1855 1.64646 27.3333 2.00008 27.3333H16.6667C17.0204 27.3333 17.3595 27.1855 17.6096 26.9223C17.8596 26.659 18.0001 26.3021 18.0001 25.9298V21.7193C17.998 19.8588 17.2949 18.0752 16.0451 16.7596C14.7953 15.444 13.1009 14.704 11.3334 14.7018Z" fill="currentColor"/>
<path d="M26.0001 10.4912H23.3334V7.68421C23.3334 7.31198 23.1929 6.95499 22.9429 6.69178C22.6928 6.42857 22.3537 6.2807 22.0001 6.2807C21.6465 6.2807 21.3073 6.42857 21.0573 6.69178C20.8072 6.95499 20.6667 7.31198 20.6667 7.68421V10.4912H18.0001C17.6465 10.4912 17.3073 10.6391 17.0573 10.9023C16.8072 11.1655 16.6667 11.5225 16.6667 11.8947C16.6667 12.267 16.8072 12.624 17.0573 12.8872C17.3073 13.1504 17.6465 13.2982 18.0001 13.2982H20.6667V16.1053C20.6667 16.4775 20.8072 16.8345 21.0573 17.0977C21.3073 17.3609 21.6465 17.5088 22.0001 17.5088C22.3537 17.5088 22.6928 17.3609 22.9429 17.0977C23.1929 16.8345 23.3334 16.4775 23.3334 16.1053V13.2982H26.0001C26.3537 13.2982 26.6928 13.1504 26.9429 12.8872C27.1929 12.624 27.3334 12.267 27.3334 11.8947C27.3334 11.5225 27.1929 11.1655 26.9429 10.9023C26.6928 10.6391 26.3537 10.4912 26.0001 10.4912Z" fill="currentColor"/>
</svg>
