<svg width="28" height="28" viewBox="0 0 28 28" fill="none" xmlns="http://www.w3.org/2000/svg">
<path d="M26.9587 13.0572L24.2887 10.3905L14.9439 1.05704C14.6936 0.807078 14.3541 0.666656 14.0001 0.666656C13.6461 0.666656 13.3066 0.807078 13.0563 1.05704L3.71144 10.3905L1.04149 13.0572C0.798315 13.3086 0.663757 13.6454 0.666799 13.995C0.66984 14.3446 0.810238 14.6791 1.05775 14.9263C1.30527 15.1735 1.6401 15.3137 1.99012 15.3168C2.34015 15.3198 2.67737 15.1854 2.92914 14.9425L3.32029 14.5519V24.6666C3.32029 25.3739 3.60159 26.0522 4.1023 26.5523C4.60301 27.0524 5.28212 27.3333 5.99024 27.3333H9.99516C10.3492 27.3333 10.6888 27.1928 10.9391 26.9428C11.1895 26.6927 11.3301 26.3536 11.3301 26V20.6666C11.3301 20.313 11.4708 19.9738 11.7211 19.7238C11.9715 19.4737 12.3111 19.3332 12.6651 19.3332H15.3351C15.6891 19.3332 16.0287 19.4737 16.279 19.7238C16.5294 19.9738 16.67 20.313 16.67 20.6666V26C16.67 26.3536 16.8107 26.6927 17.061 26.9428C17.3114 27.1928 17.6509 27.3333 18.005 27.3333H22.0099C22.718 27.3333 23.3971 27.0524 23.8979 26.5523C24.3986 26.0522 24.6799 25.3739 24.6799 24.6666V14.5519L25.071 14.9425C25.3228 15.1854 25.66 15.3198 26.01 15.3168C26.3601 15.3137 26.6949 15.1735 26.9424 14.9263C27.1899 14.6791 27.3303 14.3446 27.3334 13.995C27.3364 13.6454 27.2018 13.3086 26.9587 13.0572Z" fill="currentColor"/>
</svg>
