<svg width="24" height="24" viewBox="0 0 24 24" fill="none" xmlns="http://www.w3.org/2000/svg">
<path d="M24 7.26316C24 5.64253 22.0488 1.79368 21.4512 0.653053C21.3475 0.455168 21.1953 0.290191 21.0104 0.175326C20.8255 0.0604606 20.6147 -8.56859e-05 20.4 1.03501e-07H3.6C3.3874 -9.04769e-05 3.17859 0.0592753 2.99494 0.172023C2.81129 0.284771 2.6594 0.446853 2.5548 0.641684C1.956 1.75958 0 5.53895 0 7.26316C0.000523425 7.81478 0.107111 8.36059 0.313342 8.8677C0.519573 9.37481 0.821181 9.83274 1.2 10.2139V22.7368C1.2 23.0719 1.32643 23.3931 1.55147 23.63C1.77652 23.8669 2.08174 24 2.4 24H4.8C5.11826 24 5.42348 23.8669 5.64853 23.63C5.87357 23.3931 6 23.0719 6 22.7368V15.1579H10.8V22.7368C10.8 23.0719 10.9264 23.3931 11.1515 23.63C11.3765 23.8669 11.6817 24 12 24H21.6C21.9183 24 22.2235 23.8669 22.4485 23.63C22.6736 23.3931 22.8 23.0719 22.8 22.7368V10.1608C23.1724 9.78563 23.4703 9.33624 23.6763 8.83879C23.8823 8.34134 23.9923 7.80576 24 7.26316ZM4.3092 2.52632H19.68C20.5086 4.01299 21.1538 5.60476 21.6 7.26316C21.5754 7.67342 21.4094 8.06014 21.1333 8.35082C20.8571 8.6415 20.4897 8.81617 20.1 8.8421C19.7024 8.84144 19.3212 8.67487 19.04 8.3789C18.7589 8.08294 18.6006 7.68172 18.6 7.26316C18.6 6.92815 18.4736 6.60686 18.2485 6.36997C18.0235 6.13308 17.7183 6 17.4 6C17.0817 6 16.7765 6.13308 16.5515 6.36997C16.3264 6.60686 16.2 6.92815 16.2 7.26316C16.2 7.68192 16.042 8.08353 15.7607 8.37964C15.4794 8.67575 15.0978 8.8421 14.7 8.8421C14.3022 8.8421 13.9206 8.67575 13.6393 8.37964C13.358 8.08353 13.2 7.68192 13.2 7.26316C13.2 6.92815 13.0736 6.60686 12.8485 6.36997C12.6235 6.13308 12.3183 6 12 6C11.6817 6 11.3765 6.13308 11.1515 6.36997C10.9264 6.60686 10.8 6.92815 10.8 7.26316C10.8 7.68192 10.642 8.08353 10.3607 8.37964C10.0794 8.67575 9.69783 8.8421 9.3 8.8421C8.90218 8.8421 8.52065 8.67575 8.23934 8.37964C7.95804 8.08353 7.8 7.68192 7.8 7.26316C7.8 6.92815 7.67357 6.60686 7.44853 6.36997C7.22348 6.13308 6.91826 6 6.6 6C6.28174 6 5.97652 6.13308 5.75147 6.36997C5.52643 6.60686 5.4 6.92815 5.4 7.26316C5.39937 7.68172 5.24113 8.08294 4.95996 8.3789C4.67879 8.67487 4.29763 8.84144 3.9 8.8421C3.50372 8.83687 3.12508 8.66883 2.84484 8.37385C2.56461 8.07887 2.40498 7.68029 2.4 7.26316C2.82511 5.59882 3.46764 4.00466 4.3092 2.52632ZM18.6 17.6842C18.6 17.8517 18.5368 18.0124 18.4243 18.1308C18.3117 18.2492 18.1591 18.3158 18 18.3158H14.4C14.2409 18.3158 14.0883 18.2492 13.9757 18.1308C13.8632 18.0124 13.8 17.8517 13.8 17.6842V13.8947C13.8 13.7272 13.8632 13.5666 13.9757 13.4481C14.0883 13.3297 14.2409 13.2632 14.4 13.2632H18C18.1591 13.2632 18.3117 13.3297 18.4243 13.4481C18.5368 13.5666 18.6 13.7272 18.6 13.8947V17.6842Z" fill="currentColor"/>
</svg>
