<svg width="30" height="26" viewBox="0 0 30 26" fill="none" xmlns="http://www.w3.org/2000/svg">
<path d="M21.9998 14.9775C24.2939 14.9775 26.1536 13.1597 26.1536 10.9173C26.1536 8.67497 24.2939 6.85718 21.9998 6.85718C19.7056 6.85718 17.8459 8.67497 17.8459 10.9173C17.8459 13.1597 19.7056 14.9775 21.9998 14.9775Z" fill="currentColor"/>
<path d="M23.3844 15.8797H20.6151C19.3915 15.8812 18.2184 16.3569 17.3532 17.2026C16.488 18.0484 16.0012 19.195 15.9998 20.391V23.0978C15.9998 23.3371 16.097 23.5666 16.2701 23.7358C16.4432 23.905 16.678 24 16.9228 24H27.0767C27.3215 24 27.5563 23.905 27.7294 23.7358C27.9025 23.5666 27.9998 23.3371 27.9998 23.0978V20.391C27.9983 19.195 27.5116 18.0484 26.6463 17.2026C25.7811 16.3569 24.608 15.8812 23.3844 15.8797Z" fill="currentColor"/>
<path d="M17.0476 3.49716H1.80945C1.40532 3.49716 1.01773 3.34303 0.731958 3.06869C0.446188 2.79436 0.285645 2.42227 0.285645 2.0343C0.285645 1.64632 0.446188 1.27424 0.731958 0.999903C1.01773 0.725564 1.40532 0.571442 1.80945 0.571442H17.0476C17.4517 0.571442 17.8393 0.725564 18.125 0.999903C18.4108 1.27424 18.5714 1.64632 18.5714 2.0343C18.5714 2.42227 18.4108 2.79436 18.125 3.06869C17.8393 3.34303 17.4517 3.49716 17.0476 3.49716Z" fill="currentColor"/>
<path d="M12.9638 9.34859H1.80945C1.40532 9.34859 1.01773 9.19446 0.731958 8.92012C0.446188 8.64578 0.285645 8.2737 0.285645 7.88573C0.285645 7.49775 0.446188 7.12567 0.731958 6.85133C1.01773 6.57699 1.40532 6.42287 1.80945 6.42287H12.9638C13.3679 6.42287 13.7555 6.57699 14.0413 6.85133C14.3271 7.12567 14.4876 7.49775 14.4876 7.88573C14.4876 8.2737 14.3271 8.64578 14.0413 8.92012C13.7555 9.19446 13.3679 9.34859 12.9638 9.34859Z" fill="currentColor"/>
<path d="M11.5009 15.2H1.80945C1.40532 15.2 1.01773 15.0459 0.731958 14.7716C0.446188 14.4972 0.285645 14.1251 0.285645 13.7372C0.285645 13.3492 0.446188 12.9771 0.731958 12.7028C1.01773 12.4284 1.40532 12.2743 1.80945 12.2743H11.5009C11.9051 12.2743 12.2927 12.4284 12.5784 12.7028C12.8642 12.9771 13.0248 13.3492 13.0248 13.7372C13.0248 14.1251 12.8642 14.4972 12.5784 14.7716C12.2927 15.0459 11.9051 15.2 11.5009 15.2Z" fill="currentColor"/>
</svg>
