<svg width="29" height="23" viewBox="0 0 29 23" fill="none" xmlns="http://www.w3.org/2000/svg">
<path d="M17.0476 3.49714H1.80945C1.40532 3.49714 1.01773 3.34302 0.731958 3.06868C0.446188 2.79434 0.285645 2.42226 0.285645 2.03428C0.285645 1.64631 0.446188 1.27423 0.731958 0.999888C1.01773 0.725549 1.40532 0.571426 1.80945 0.571426H17.0476C17.4517 0.571426 17.8393 0.725549 18.125 0.999888C18.4108 1.27423 18.5714 1.64631 18.5714 2.03428C18.5714 2.42226 18.4108 2.79434 18.125 3.06868C17.8393 3.34302 17.4517 3.49714 17.0476 3.49714Z" fill="currentColor"/>
<path d="M9.61142 9.34857H1.80945C1.40532 9.34857 1.01773 9.19445 0.731958 8.92011C0.446188 8.64577 0.285645 8.27369 0.285645 7.88571C0.285645 7.49774 0.446188 7.12566 0.731958 6.85132C1.01773 6.57698 1.40532 6.42285 1.80945 6.42285H9.61142C10.0156 6.42285 10.4031 6.57698 10.6889 6.85132C10.9747 7.12566 11.1352 7.49774 11.1352 7.88571C11.1352 8.27369 10.9747 8.64577 10.6889 8.92011C10.4031 9.19445 10.0156 9.34857 9.61142 9.34857Z" fill="currentColor"/>
<path d="M9.61142 15.2H1.80945C1.40532 15.2 1.01773 15.0459 0.731958 14.7715C0.446188 14.4972 0.285645 14.1251 0.285645 13.7371C0.285645 13.3492 0.446188 12.9771 0.731958 12.7027C1.01773 12.4284 1.40532 12.2743 1.80945 12.2743H9.61142C10.0156 12.2743 10.4031 12.4284 10.6889 12.7027C10.9747 12.9771 11.1352 13.3492 11.1352 13.7371C11.1352 14.1251 10.9747 14.4972 10.6889 14.7715C10.4031 15.0459 10.0156 15.2 9.61142 15.2Z" fill="currentColor"/>
<path d="M27.2572 7.42857H14.4572C14.0328 7.42857 13.6259 7.60253 13.3258 7.91217C13.0257 8.22182 12.8572 8.64178 12.8572 9.07968V17.3352C12.8572 17.7731 13.0257 18.1931 13.3258 18.5027C13.6259 18.8124 14.0328 18.9863 14.4572 18.9863H17.294L19.854 22.0062C19.9291 22.0941 20.0214 22.1644 20.1248 22.2126C20.2283 22.2608 20.3405 22.2857 20.454 22.2857C20.5675 22.2857 20.6797 22.2608 20.7831 22.2126C20.8866 22.1644 20.9789 22.0941 21.054 22.0062L23.6204 18.9863H27.2572C27.6815 18.9863 28.0885 18.8124 28.3885 18.5027C28.6886 18.1931 28.8572 17.7731 28.8572 17.3352V9.07968C28.8572 8.64178 28.6886 8.22182 28.3885 7.91217C28.0885 7.60253 27.6815 7.42857 27.2572 7.42857ZM20.8572 15.6841H16.8572C16.645 15.6841 16.4415 15.5971 16.2915 15.4423C16.1415 15.2875 16.0572 15.0775 16.0572 14.8586C16.0572 14.6396 16.1415 14.4296 16.2915 14.2748C16.4415 14.12 16.645 14.033 16.8572 14.033H20.8572C20.4572 14.033 21.0694 14.033 20.8572 14.033C21.2572 14.033 21.6572 14.4458 21.6572 14.8586C21.6572 15.0775 21.5729 15.2875 21.4229 15.4423C21.2728 15.5971 21.0694 15.6841 20.8572 15.6841ZM24.0572 12.3819H16.8572C16.645 12.3819 16.4415 12.2949 16.2915 12.1401C16.1415 11.9853 16.0572 11.7753 16.0572 11.5563C16.0572 11.3374 16.1415 11.1274 16.2915 10.9726C16.4415 10.8178 16.645 10.7308 16.8572 10.7308H24.0572C24.2694 10.7308 24.4728 10.8178 24.6229 10.9726C24.7729 11.1274 24.8572 11.3374 24.8572 11.5563C24.8572 11.7753 24.7729 11.9853 24.6229 12.1401C24.4728 12.2949 24.2694 12.3819 24.0572 12.3819Z" fill="currentColor"/>
</svg>
