<svg width="17" height="16" viewBox="0 0 17 16" fill="none" xmlns="http://www.w3.org/2000/svg">
<path d="M15.1667 3.83333H13.5001V8C13.5001 8.88406 13.1489 9.7319 12.5238 10.357C11.8986 10.9821 11.0508 11.3333 10.1667 11.3333H7.66675L5.87175 12.6792C6.15003 12.8857 6.4869 12.9981 6.83342 13H9.88925L13.0001 15.3333C13.1443 15.4415 13.3198 15.5 13.5001 15.5C13.7211 15.5 13.9331 15.4122 14.0893 15.2559C14.2456 15.0996 14.3334 14.8877 14.3334 14.6667V13H15.1667C15.6088 13 16.0327 12.8244 16.3453 12.5118C16.6578 12.1993 16.8334 11.7754 16.8334 11.3333V5.5C16.8334 5.05797 16.6578 4.63405 16.3453 4.32149C16.0327 4.00893 15.6088 3.83333 15.1667 3.83333Z" fill="#343A40"/>
<path d="M10.1667 0.5H1.83341C1.39139 0.5 0.967464 0.675595 0.654903 0.988155C0.342343 1.30072 0.166748 1.72464 0.166748 2.16667V8C0.166748 8.44203 0.342343 8.86595 0.654903 9.17851C0.967464 9.49107 1.39139 9.66667 1.83341 9.66667H2.66675V11.3333C2.66675 11.4881 2.70984 11.6398 2.79121 11.7714C2.87257 11.9031 2.98898 12.0095 3.1274 12.0787C3.26583 12.1479 3.42078 12.1772 3.57492 12.1633C3.72905 12.1494 3.87627 12.0929 4.00008 12L7.11092 9.66667H10.1667C10.6088 9.66667 11.0327 9.49107 11.3453 9.17851C11.6578 8.86595 11.8334 8.44203 11.8334 8V2.16667C11.8334 1.72464 11.6578 1.30072 11.3453 0.988155C11.0327 0.675595 10.6088 0.5 10.1667 0.5Z" fill="#343A40"/>
</svg>
