<svg width="28" height="24" viewBox="0 0 28 24" fill="none" xmlns="http://www.w3.org/2000/svg">
<path d="M2.54096 23.8855L26.541 13.2188C26.7768 13.1142 26.9772 12.9433 27.1178 12.727C27.2585 12.5107 27.3333 12.2582 27.3333 12.0002C27.3333 11.7422 27.2585 11.4897 27.1178 11.2734C26.9772 11.057 26.7768 10.8862 26.541 10.7815L2.54096 0.11484C2.31259 0.013379 2.06029 -0.0218587 1.81285 0.0131462C1.56542 0.048151 1.3328 0.151989 1.14153 0.312818C0.950258 0.473647 0.808035 0.684992 0.731081 0.922749C0.654127 1.16051 0.64554 1.4151 0.706297 1.65751L2.9583 10.6668L15.333 10.6668C15.6866 10.6668 16.0257 10.8073 16.2758 11.0574C16.5258 11.3074 16.6663 11.6466 16.6663 12.0002C16.6663 12.3538 16.5258 12.6929 16.2758 12.943C16.0257 13.193 15.6866 13.3335 15.333 13.3335L2.9583 13.3335L0.706297 22.3442C0.645861 22.5865 0.654688 22.8409 0.731779 23.0784C0.808872 23.316 0.951126 23.5271 1.14234 23.6877C1.33355 23.8484 1.56603 23.9521 1.81331 23.987C2.06058 24.022 2.31271 23.9868 2.54096 23.8855Z" fill="#6B7280"/>
</svg>
